# xmcd
#
# Track frame offsets:
#	150
#	12020
#	28178
#	44287
#	54885
#	70547
#	87803
#	98667
#	112934
#	129056
#	139985
#	156284
#	166858
#	185709
#	203422
#	215994
#
# Disc length: 3048 seconds
#
# Revision: 1
# Processed by: cddbd v1.5.1PL0 Copyright (c) Steve Scherf et al.
# Submitted via: audiograbber 1.83.01
#
DISCID=cb0be610
DTITLE=Glen Flynn - Midlands Of Irland
DYEAR=1900
DGENRE=Country
TTITLE0=Midlands Of Irland
TTITLE1=Carry This Torch
TTITLE2=The Family Bible
TTITLE3=Back In My Baby's Arms Again
TTITLE4=Connemara Marble Ring
TTITLE5=The Selflessness In Man
TTITLE6=Gypsy Rover
TTITLE7=The Old Bog Road
TTITLE8=Blue Hills Of Breffni
TTITLE9=Don't Read This Letter
TTITLE10=The Green Hills Of Sligo
TTITLE11=How Many Times
TTITLE12=Come Back Paddy Reilly To Ballyjamesduff
TTITLE13=Secret Love
TTITLE14=Hail, Rain Or Snow
TTITLE15=Thank God For Kids
EXTD=
EXTT0=
EXTT1=
EXTT2=
EXTT3=
EXTT4=
EXTT5=
EXTT6=
EXTT7=
EXTT8=
EXTT9=
EXTT10=
EXTT11=
EXTT12=
EXTT13=
EXTT14=
EXTT15=
PLAYORDER=
